<?xml version="1.0" standalone="no"?><!DOCTYPE svg PUBLIC "-//W3C//DTD SVG 1.1//EN" "http://www.w3.org/Graphics/SVG/1.1/DTD/svg11.dtd"><svg t="1550217312393" class="icon" style="" viewBox="0 0 1024 1024" version="1.1" xmlns="http://www.w3.org/2000/svg" p-id="959" xmlns:xlink="http://www.w3.org/1999/xlink" width="16" height="16"><defs><style type="text/css"></style></defs><path d="M197.7088 478.72l39.68-39.168a19.2 19.2 0 1 1 26.9824 27.2896l-73.344 72.448a19.2 19.2 0 0 1-26.9824 0l-75.136-74.24A19.2 19.2 0 1 1 115.8912 437.76l43.0592 42.5472C175.616 300.6464 326.7328 160 510.72 160c195.1232 0 353.28 158.1568 353.28 353.28 0 195.1232-158.1568 353.28-353.28 353.28a352.0512 352.0512 0 0 1-242.0224-95.9232 19.2 19.2 0 1 1 26.2912-27.9808 313.6768 313.6768 0 0 0 215.7312 85.504c173.9008 0 314.88-140.9792 314.88-314.88 0-173.9008-140.9792-314.88-314.88-314.88-162.2272 0-295.808 122.6752-313.0112 280.32z" fill="#e6e6e6" p-id="960"></path></svg>